<?xml version="1.0" standalone="no"?>
<!DOCTYPE svg PUBLIC "-//W3C//DTD SVG 20010904//EN"
 "http://www.w3.org/TR/2001/REC-SVG-20010904/DTD/svg10.dtd">
<svg version="1.0" xmlns="http://www.w3.org/2000/svg"
 width="1568.000000pt" height="1568.000000pt" viewBox="0 0 1568.000000 1568.000000"
 preserveAspectRatio="xMidYMid meet">
<metadata>
Created by potrace 1.14, written by Peter Selinger 2001-2017
</metadata>
<g transform="translate(0.000000,1568.000000) scale(0.100000,-0.100000)"
fill="#000000" stroke="none">
<path d="M1090 12319 c0 -3 -21 -65 -46 -139 -25 -74 -47 -139 -48 -145 -2 -5
-6 -17 -9 -25 -8 -20 -98 -293 -101 -305 -4 -19 -29 -90 -35 -100 -3 -5 -7
-17 -8 -26 -1 -9 -7 -27 -12 -40 -5 -13 -9 -27 -10 -31 -4 -14 -142 -423 -148
-438 -3 -8 -7 -19 -8 -25 -4 -15 -115 -347 -122 -365 -4 -8 -8 -22 -9 -30 -1
-8 -16 -52 -32 -97 -17 -46 -28 -83 -25 -83 3 0 1 -6 -4 -12 -8 -11 -17 -36
-28 -78 -2 -10 -47 -145 -52 -160 -4 -8 -7 -17 -8 -20 0 -3 -18 -57 -39 -120
-21 -63 -40 -122 -42 -130 -3 -14 -90 -279 -101 -310 -3 -8 -7 -21 -9 -28 -1
-8 -6 -21 -10 -30 -8 -19 -10 -27 -18 -57 -2 -11 -14 -47 -26 -80 -12 -33 -23
-67 -25 -75 -2 -8 -18 -58 -35 -110 -18 -52 -33 -105 -35 -118 -2 -13 -9 -29
-15 -37 -7 -8 -10 -15 -7 -15 4 0 0 -19 -8 -41 -8 -23 -15 -45 -15 -49 0 -28
208 -46 476 -41 34 1 35 3 57 96 1 6 5 15 8 20 4 6 10 24 14 40 5 17 9 32 10
35 1 3 5 21 9 40 5 19 13 41 18 48 6 6 8 12 5 12 -4 0 1 19 9 43 9 23 17 51
20 63 2 12 11 40 19 64 8 23 13 46 10 50 -3 5 -2 10 2 12 6 2 45 120 57 173 2
6 13 45 26 87 l23 77 186 -5 c102 -2 269 -6 371 -9 542 -12 737 -17 759 -19
21 -3 28 -16 58 -107 18 -57 34 -112 35 -121 1 -10 5 -18 9 -18 6 0 19 -50 20
-77 1 -5 4 -12 8 -18 5 -5 12 -23 16 -40 5 -16 9 -32 10 -35 4 -11 17 -46 26
-68 5 -13 7 -28 4 -33 -4 -5 -1 -9 4 -9 6 0 10 -3 9 -7 -1 -5 7 -35 17 -68 11
-33 20 -62 20 -65 1 -3 4 -12 7 -20 4 -8 14 -40 24 -70 10 -30 21 -58 24 -63
11 -13 377 -7 447 7 64 13 69 28 38 115 -8 23 -15 45 -16 49 -1 4 -3 12 -5 17
-14 37 -67 203 -69 215 -2 8 -4 16 -5 18 -2 1 -3 5 -4 10 -1 4 -11 32 -21 62
-11 30 -20 60 -21 65 0 6 -7 24 -13 40 -7 17 -14 35 -15 40 -2 6 -6 17 -9 25
-10 26 -199 593 -202 604 -1 6 -5 18 -8 26 -9 21 -187 542 -192 560 -2 8 -33
101 -70 205 -36 105 -68 197 -70 205 -2 8 -34 101 -70 205 -36 105 -82 237
-101 295 -19 58 -38 112 -41 120 -3 8 -7 17 -8 20 0 3 -18 57 -40 120 -22 63
-40 117 -40 120 -1 3 -7 18 -14 34 -6 16 -13 36 -14 45 -1 9 -5 21 -8 26 -4 6
-11 26 -18 45 -10 33 -14 36 -54 36 -23 1 -96 4 -162 7 -188 11 -475 20 -475
16z m386 -644 c17 -41 84 -223 84 -229 0 -3 5 -17 12 -33 6 -15 12 -30 13 -33
4 -19 49 -147 54 -155 3 -5 6 -14 7 -20 1 -5 20 -64 42 -130 22 -66 64 -194
92 -285 28 -91 54 -172 58 -180 3 -8 7 -19 7 -25 1 -5 5 -17 8 -25 12 -29 57
-180 61 -205 5 -27 -1 -33 -36 -41 -119 -25 -791 -22 -882 4 -36 10 -39 25
-19 99 8 32 16 63 18 68 1 6 5 17 8 25 5 12 27 90 32 110 0 3 11 37 24 75 13
39 24 75 25 80 2 9 41 132 53 165 3 8 38 110 78 225 39 116 79 227 88 248 9
20 13 37 10 37 -3 0 -1 6 4 13 5 6 17 35 27 62 20 58 27 75 52 130 10 22 19
42 19 45 0 3 7 16 14 30 l14 25 10 -25 c6 -14 16 -38 23 -55z"/>
<path d="M4348 11405 c-2 -2 -28 -6 -58 -10 -74 -10 -95 -13 -95 -15 0 -2 -19
-7 -57 -15 -46 -9 -201 -99 -252 -147 -25 -23 -79 -48 -104 -48 -64 0 -93 34
-106 125 -2 11 -4 23 -5 26 -4 18 -148 48 -183 38 -16 -4 -28 -4 -28 -1 0 4
-16 7 -35 7 -19 0 -35 -2 -35 -5 0 -3 -18 -4 -40 -2 -22 2 -40 0 -41 -4 -3
-36 -1 -2385 2 -2388 6 -7 62 -8 224 -6 78 1 145 1 150 0 6 -2 30 -2 56 -1
l45 1 1 485 c1 423 6 658 18 825 8 113 16 208 21 235 3 17 7 43 9 58 14 104
140 260 255 315 129 62 190 72 441 72 l57 0 -2 193 c-2 215 -9 245 -61 259
-26 7 -170 9 -177 3z"/>
<path d="M6195 11403 c-16 -2 -54 -8 -82 -14 -29 -6 -55 -10 -58 -10 -12 1
-175 -74 -324 -149 -89 -45 -167 -78 -171 -73 -5 4 -10 33 -10 63 -3 106 -24
128 -128 136 -37 3 -68 7 -71 9 -2 3 -11 0 -20 -5 -10 -5 -23 -5 -31 0 -7 4
-24 4 -36 0 -13 -5 -26 -6 -28 -1 -3 4 -18 6 -34 3 l-28 -4 0 -1199 0 -1199
65 0 c279 -2 404 0 408 4 3 3 7 272 8 598 2 326 6 627 8 668 7 115 22 245 27
245 1 0 3 14 5 30 16 148 150 328 305 409 218 115 491 84 618 -70 16 -19 34
-45 40 -57 29 -63 43 -99 48 -129 3 -18 10 -44 15 -58 4 -14 11 -47 14 -75 4
-27 8 -63 11 -80 18 -135 26 -411 27 -975 l2 -505 80 -5 c44 -3 107 -3 140 0
33 3 87 3 120 0 33 -3 79 -3 102 -2 l42 4 -5 231 c-2 128 -6 354 -8 504 -2
149 -7 276 -10 282 -4 6 -3 11 2 11 5 0 8 12 6 28 -2 15 -6 101 -9 192 -6 199
-11 295 -20 375 -10 100 -13 115 -41 245 -3 14 -14 43 -24 66 -11 22 -20 45
-20 51 0 6 -3 13 -7 15 -5 2 -17 21 -28 43 -11 22 -22 42 -25 45 -3 3 -18 23
-34 45 -110 152 -286 250 -516 289 -85 14 -256 24 -325 19z"/>
<path d="M8965 11404 c-6 -2 -35 -5 -65 -8 -65 -6 -155 -21 -155 -27 0 -1 -9
-3 -20 -4 -33 -4 -185 -67 -259 -107 -38 -21 -72 -38 -77 -38 -4 0 -9 -4 -11
-8 -1 -5 -24 -22 -50 -40 -68 -47 -177 -157 -240 -242 -109 -148 -191 -348
-222 -540 -14 -91 -16 -372 -3 -426 3 -12 8 -37 11 -55 12 -71 17 -89 42 -161
14 -40 27 -80 28 -88 6 -26 96 -192 122 -227 13 -17 24 -36 24 -41 0 -6 3 -12
8 -14 4 -1 24 -24 45 -50 46 -57 110 -122 157 -157 19 -14 37 -28 40 -32 16
-17 112 -76 188 -114 90 -45 219 -89 288 -99 22 -4 51 -9 64 -11 28 -6 191 -7
230 -1 110 15 227 43 267 64 11 6 23 8 27 5 3 -3 6 0 6 7 0 7 3 11 6 7 9 -9
209 103 226 128 5 6 8 6 8 0 0 -6 3 -5 8 1 4 6 36 35 72 65 131 108 325 327
345 388 9 28 -11 46 -60 56 -22 5 -47 10 -55 12 -23 5 -241 4 -281 -2 -20 -2
-49 -9 -65 -15 -16 -6 -31 -12 -34 -12 -21 -2 -52 -22 -90 -58 -59 -56 -115
-93 -181 -123 -78 -35 -104 -44 -184 -63 -118 -28 -196 -22 -305 23 -119 49
-220 126 -325 246 -33 37 -66 74 -72 82 -7 7 -13 18 -13 23 0 6 -3 12 -8 14
-16 7 -72 127 -76 164 -4 32 -2 42 15 53 61 37 235 44 1081 45 701 1 708 1
709 21 4 69 -5 350 -11 350 -1 0 -3 11 -6 25 -2 14 -7 41 -11 60 -4 19 -7 40
-8 45 -2 19 -46 150 -64 190 -10 22 -24 55 -32 73 -8 17 -18 32 -22 32 -5 0
-6 4 -2 9 3 5 -2 16 -10 24 -8 9 -15 19 -15 22 0 8 -55 87 -90 130 -68 83
-214 215 -238 215 -6 0 -12 4 -14 8 -3 7 -97 66 -108 67 -3 0 -15 6 -27 13
-57 32 -199 73 -303 88 -47 7 -189 12 -205 8z m184 -428 c91 -20 149 -56 248
-154 122 -119 188 -220 199 -305 6 -41 4 -48 -21 -71 -32 -30 -90 -39 -247
-40 -60 -1 -108 -5 -108 -9 0 -5 -5 -5 -11 -1 -16 10 -139 11 -139 1 0 -5 -5
-5 -11 -2 -13 9 -69 13 -69 6 0 -5 -67 -5 -80 -1 -15 6 -47 4 -62 -3 -11 -4
-18 -4 -18 2 0 6 -11 6 -30 1 -16 -5 -30 -6 -30 -2 0 4 -57 7 -128 7 -218 -1
-296 16 -289 64 12 81 100 232 185 319 72 73 196 149 267 162 3 1 19 6 37 11
18 5 56 12 83 15 28 4 51 7 53 9 4 4 146 -4 171 -9z"/>
<path d="M1737 6874 c-1 -1 -49 -4 -107 -8 -58 -3 -117 -8 -131 -11 -14 -3
-45 -7 -70 -9 -24 -3 -44 -5 -44 -6 0 -1 -13 -4 -30 -6 -46 -8 -70 -12 -70
-14 0 -1 -9 -3 -20 -5 -26 -5 -59 -13 -62 -15 -2 -2 -6 -3 -10 -5 -65 -18
-286 -142 -339 -190 -7 -5 -31 -26 -55 -45 -77 -61 -239 -231 -300 -315 -32
-44 -63 -85 -68 -91 -18 -22 -100 -172 -135 -249 -21 -44 -42 -89 -47 -100
-14 -30 -58 -165 -54 -165 2 0 -1 -15 -6 -32 -9 -33 -20 -122 -23 -195 -1 -21
-5 -44 -9 -51 -5 -6 -5 -12 0 -12 10 0 9 -82 0 -97 -4 -7 -3 -14 2 -18 6 -3 7
-15 1 -29 -4 -12 -5 -28 -1 -34 8 -13 6 -76 -4 -91 -3 -6 -3 -11 2 -11 4 0 8
-33 9 -73 1 -128 17 -257 40 -325 8 -24 12 -48 9 -53 -4 -5 -1 -9 4 -9 6 0 11
-7 11 -16 0 -8 15 -49 34 -90 19 -41 32 -74 28 -74 -4 0 -2 -4 3 -8 6 -4 21
-29 35 -57 13 -27 37 -69 52 -92 15 -23 28 -45 28 -49 0 -4 11 -22 25 -40 14
-18 25 -36 25 -41 0 -5 9 -15 20 -23 11 -8 20 -19 20 -25 0 -28 306 -325 335
-325 3 0 26 -15 52 -34 27 -18 80 -50 118 -71 39 -20 75 -40 80 -43 6 -4 12
-7 15 -8 3 0 37 -15 75 -33 133 -63 255 -97 389 -107 89 -7 461 -7 501 0 17 2
55 8 85 11 30 4 63 11 73 16 9 5 17 7 17 5 0 -3 19 2 43 10 23 9 47 17 52 19
29 8 84 31 158 68 45 22 84 41 87 42 3 0 56 27 118 59 63 31 118 56 123 54 5
-2 68 -61 141 -133 73 -71 145 -141 160 -154 l27 -24 66 64 c175 168 245 239
245 245 0 4 -36 43 -79 88 -181 184 -231 239 -231 255 0 9 14 40 30 70 17 30
30 60 30 67 0 7 3 14 8 16 15 7 147 297 167 371 2 4 4 10 5 15 1 4 2 10 1 14
0 4 4 19 9 33 5 14 12 40 15 58 3 18 8 39 10 47 4 17 11 61 24 165 9 70 7 438
-2 485 -3 14 -8 43 -11 65 -4 22 -11 61 -17 86 -6 26 -12 53 -13 60 -25 128
-118 352 -188 456 -15 23 -28 46 -28 51 0 6 -3 12 -7 14 -5 2 -28 30 -53 63
-108 145 -293 310 -460 411 -53 32 -252 135 -270 139 -3 1 -23 10 -45 20 -22
9 -47 19 -55 20 -8 2 -15 4 -15 5 0 1 -7 3 -15 5 -8 1 -33 8 -55 13 -64 18
-149 25 -318 26 -87 1 -159 1 -160 0z m228 -478 c35 -6 122 -26 180 -42 11 -3
25 -6 32 -8 7 -1 16 -5 19 -9 4 -4 14 -7 23 -7 16 0 213 -93 235 -111 163
-130 245 -223 322 -367 53 -97 126 -302 125 -347 0 -2 4 -19 10 -37 16 -58 24
-150 24 -288 0 -179 -12 -275 -50 -406 -9 -30 -16 -57 -16 -61 -1 -5 -6 -17
-12 -28 -6 -11 -12 -22 -12 -25 -4 -24 -31 -80 -39 -80 -5 0 -7 -3 -3 -6 7 -8
-38 -91 -102 -188 -42 -65 -161 -193 -227 -244 -79 -62 -303 -148 -434 -168
-96 -14 -326 -25 -344 -16 -4 3 -31 6 -60 7 -64 3 -153 21 -231 46 -58 19
-185 78 -195 90 -3 3 -24 18 -47 32 -88 55 -244 227 -319 352 -89 146 -154
319 -170 450 -3 22 -9 54 -13 70 -9 35 -7 301 3 360 28 165 107 401 153 456 7
8 13 19 13 23 0 9 97 153 118 175 10 10 31 33 48 52 29 32 77 75 135 124 13
11 42 31 64 45 22 13 42 27 45 30 12 15 198 95 242 104 13 3 48 12 78 19 57
15 323 16 405 3z"/>
<path d="M9297 5974 c-1 -1 -31 -5 -67 -8 -87 -8 -118 -14 -200 -36 -25 -7
-51 -13 -57 -13 -7 0 -13 -5 -13 -10 0 -6 -3 -8 -6 -4 -7 6 -93 -39 -160 -85
-23 -15 -73 -57 -110 -92 -38 -36 -74 -66 -80 -66 -5 0 -20 42 -33 94 -17 73
-29 100 -53 125 -17 17 -35 31 -42 32 -54 3 -86 8 -95 14 -6 3 -11 1 -11 -5 0
-7 -6 -8 -18 -1 -11 6 -24 6 -34 0 -10 -6 -19 -6 -23 0 -4 7 -15 7 -30 1 -16
-6 -25 -6 -25 0 0 5 -6 7 -13 4 -11 -4 -13 -220 -13 -1202 l1 -1197 28 0 c15
1 27 -2 27 -5 0 -7 295 -4 314 3 9 4 18 2 21 -3 19 -30 51 32 33 64 -5 9 -5
16 -1 16 9 0 9 107 0 116 -4 4 -2 15 3 25 7 12 7 20 0 24 -6 4 -7 12 -1 23 5
9 5 26 0 40 -5 13 -6 21 -1 19 8 -6 8 45 -1 59 -3 6 -2 16 3 24 5 8 5 21 -1
31 -5 10 -6 20 -1 23 8 5 7 80 -2 103 -3 7 -2 13 2 13 4 0 6 24 5 52 -4 86 -4
92 0 118 2 14 -1 33 -5 43 -5 9 -5 17 -1 17 4 0 9 48 10 108 5 299 34 545 79
687 47 146 148 278 260 337 179 94 387 94 539 0 46 -29 128 -112 149 -151 38
-70 69 -149 80 -203 49 -239 58 -414 60 -1098 1 -455 2 -485 19 -484 9 1 17
-1 17 -5 0 -3 52 -6 115 -6 63 0 115 3 115 7 0 4 14 3 30 -2 17 -5 30 -5 30
-1 0 5 14 6 30 2 17 -3 52 -5 78 -3 l47 4 -2 496 c-1 599 -11 887 -38 1112
-11 92 -16 114 -45 199 -70 209 -190 372 -368 499 -17 12 -34 22 -37 22 -3 0
-23 11 -45 25 -22 14 -40 23 -40 20 0 -3 -10 0 -22 7 -13 7 -25 13 -28 13 -3
1 -30 9 -60 18 -62 19 -98 26 -155 33 -43 5 -155 11 -158 8z"/>
<path d="M14407 5964 c-2 -2 -27 -5 -57 -8 -77 -6 -210 -40 -273 -71 -30 -14
-57 -25 -61 -25 -3 0 -46 -25 -94 -56 -95 -61 -179 -130 -227 -183 -16 -19
-36 -41 -43 -48 -45 -45 -172 -259 -172 -289 0 -8 -4 -14 -10 -14 -5 0 -9 -3
-8 -7 1 -5 -7 -37 -19 -73 -12 -36 -25 -78 -29 -95 -4 -16 -9 -37 -11 -45 -2
-8 -5 -28 -7 -45 -2 -16 -7 -59 -11 -94 -13 -111 -9 -269 10 -456 1 -11 5 -27
8 -35 3 -8 8 -28 10 -45 21 -132 105 -322 193 -436 100 -131 275 -276 417
-347 45 -22 85 -40 88 -39 3 1 12 -3 20 -10 11 -9 63 -27 109 -38 3 0 15 -4
27 -8 58 -20 358 -33 369 -16 3 5 9 7 14 4 11 -7 109 15 199 44 58 19 242 104
266 123 6 4 39 29 75 55 36 26 73 56 83 67 9 10 17 17 17 13 0 -16 209 209
219 237 2 6 7 13 10 16 11 9 32 52 46 91 12 34 12 41 -5 61 -16 21 -28 23
-107 25 -48 1 -110 -3 -138 -8 -27 -6 -63 -13 -80 -16 -80 -14 -285 -103 -285
-124 0 -5 -5 -9 -12 -9 -6 0 -19 -6 -27 -14 -21 -18 -151 -87 -151 -79 0 3 -6
1 -13 -6 -36 -29 -220 -51 -302 -36 -75 14 -132 29 -157 42 -15 7 -29 12 -31
11 -11 -10 -153 88 -207 143 -76 78 -80 83 -105 129 -11 19 -26 43 -34 53 -8
9 -11 17 -7 17 3 0 0 10 -9 23 -8 13 -12 27 -8 30 3 4 1 7 -5 7 -7 0 -12 8
-12 17 0 9 -4 30 -10 47 -33 106 -37 124 -31 133 4 6 336 9 896 8 490 0 898 3
908 8 10 4 15 13 11 18 -3 6 -8 27 -10 47 -6 77 -15 159 -19 197 -3 22 -8 65
-11 95 -3 30 -7 62 -8 70 -2 8 -6 39 -10 67 -4 29 -12 56 -17 59 -5 3 -7 9 -5
13 5 7 -25 114 -43 156 -57 132 -130 242 -216 325 -79 77 -76 74 -125 105 -25
15 -47 31 -50 34 -26 31 -242 129 -325 147 -5 1 -28 6 -50 12 -22 6 -65 14
-95 18 -58 7 -247 13 -253 8z m243 -439 c76 -20 155 -57 194 -90 16 -13 31
-25 34 -27 13 -6 119 -134 152 -183 18 -27 41 -62 51 -76 29 -44 71 -151 62
-160 -13 -13 -90 -19 -316 -24 -115 -3 -213 -8 -218 -11 -5 -3 -9 -2 -9 3 0 4
-107 8 -238 9 -304 0 -429 13 -471 47 -23 19 -32 56 -19 80 7 12 11 25 10 30
-1 4 2 7 7 7 5 0 12 9 16 19 13 43 288 306 365 350 85 49 252 60 380 26z"/>
<path d="M4099 5911 c-3 -50 0 -152 5 -160 4 -5 2 -12 -4 -16 -6 -4 -8 -11 -4
-16 3 -6 8 -85 10 -177 2 -92 6 -270 9 -397 19 -844 28 -937 106 -1104 26 -56
125 -227 139 -241 3 -3 17 -21 31 -40 37 -49 117 -130 129 -130 6 0 10 -3 10
-8 0 -21 154 -87 251 -108 128 -27 516 -23 616 5 17 5 34 7 37 3 3 -3 6 0 6 7
0 7 4 10 8 7 12 -7 143 65 172 94 17 17 105 73 134 85 33 14 36 14 45 -4 6
-10 12 -43 14 -72 3 -30 8 -61 11 -70 10 -22 43 -38 95 -44 23 -3 47 -8 52
-11 5 -3 9 -1 9 5 0 6 11 6 29 1 15 -4 34 -4 42 0 7 5 17 6 23 3 13 -8 66 -10
66 -2 0 3 10 4 23 2 l23 -5 0 1202 c0 990 -2 1200 -13 1196 -7 -3 -13 -2 -13
2 0 4 -11 7 -25 7 -14 0 -25 -2 -25 -5 0 -4 -67 -4 -80 0 -15 6 -47 4 -62 -3
-10 -4 -18 -4 -18 0 0 4 -27 8 -60 8 -33 0 -60 -4 -60 -8 0 -4 -8 -4 -17 0
-10 5 -38 6 -63 3 l-45 -5 -1 -560 c-1 -588 -6 -738 -29 -899 -10 -67 -22
-131 -25 -131 -1 0 -4 -11 -7 -25 -7 -35 -9 -42 -21 -73 -7 -16 -12 -32 -12
-37 0 -22 -97 -149 -138 -181 -40 -31 -104 -70 -122 -74 -3 -1 -12 -4 -20 -8
-76 -29 -216 -40 -297 -21 -29 6 -53 10 -53 8 0 -3 -28 10 -62 27 -73 36 -155
116 -185 179 -31 68 -62 160 -67 202 -2 21 -6 41 -9 45 -4 8 -15 81 -22 148
-2 17 -6 53 -9 80 -13 118 -21 282 -31 640 -3 88 -7 248 -10 355 -3 107 -6
225 -7 262 -2 61 -4 67 -25 71 -13 2 -23 0 -23 -5 0 -5 -8 -5 -18 1 -11 6 -24
6 -34 0 -10 -6 -19 -6 -23 0 -4 7 -15 7 -30 1 -14 -5 -25 -6 -25 -2 0 4 -29 7
-65 7 -36 0 -65 -4 -65 -8 0 -5 -5 -5 -11 -2 -14 9 -69 13 -69 5 0 -4 -20 -4
-45 0 -37 6 -45 4 -46 -9z"/>
<path d="M7020 5920 l-35 -5 0 -1197 c0 -658 2 -1195 4 -1193 1 2 13 0 25 -5
12 -4 29 -4 38 1 10 6 19 6 23 0 3 -7 15 -7 30 -1 15 6 27 6 30 0 3 -6 15 -6
30 0 15 6 25 6 25 0 0 -5 12 -5 30 0 17 5 30 5 30 0 0 -5 13 -5 29 0 16 4 32
6 35 2 8 -8 66 -8 66 0 0 4 13 3 28 -2 63 -17 58 -105 58 1202 -1 1053 -3
1193 -16 1194 -8 1 -19 3 -25 4 -27 5 -234 2 -243 -4 -6 -3 -13 -2 -17 3 -4 7
-15 7 -30 1 -14 -5 -25 -6 -25 -2 0 8 -40 9 -90 2z"/>
<path d="M10939 5920 c-1 -3 -3 -88 -4 -190 l-2 -185 583 1 c321 1 584 -1 584
-3 0 -4 -48 -81 -61 -97 -25 -31 -179 -270 -179 -276 0 -5 -3 -10 -7 -12 -11
-5 -93 -125 -93 -137 0 -5 -4 -11 -8 -13 -10 -4 -72 -96 -72 -108 0 -4 -3 -10
-7 -12 -11 -5 -73 -97 -73 -108 0 -6 -4 -10 -10 -10 -5 0 -10 -6 -10 -14 0 -8
-4 -16 -8 -18 -24 -10 -532 -819 -532 -848 0 -4 -3 -10 -7 -12 -8 -3 -50 -86
-81 -158 -14 -31 -27 -208 -15 -196 2 2 18 0 34 -4 17 -5 29 -5 29 0 0 6 10 6
25 0 15 -6 26 -6 30 0 4 6 13 7 24 1 10 -6 23 -6 31 -1 8 5 21 5 30 0 9 -5 22
-5 30 0 7 4 19 6 25 4 20 -8 165 -10 165 -2 0 4 14 3 30 -2 17 -5 30 -5 30 -1
0 5 15 5 33 2 17 -4 51 -4 75 -1 23 4 45 3 48 -1 2 -5 16 -4 29 1 15 6 27 6
30 0 3 -6 15 -6 30 0 15 6 27 6 30 0 3 -6 15 -6 30 0 15 6 25 6 25 0 0 -5 12
-5 30 0 17 5 30 5 30 0 0 -5 13 -5 30 0 17 5 32 5 35 0 3 -5 16 -5 30 0 15 6
27 6 30 0 3 -6 15 -6 30 0 15 6 25 6 25 0 0 -5 12 -5 30 0 17 5 30 5 30 0 0
-5 13 -5 30 0 17 5 32 5 35 0 3 -5 16 -5 30 0 14 5 25 6 25 2 0 -4 52 -7 115
-7 63 0 115 3 115 7 0 4 14 3 30 -2 17 -5 30 -5 30 0 0 5 6 7 14 4 21 -8 166
-10 166 -2 0 4 14 3 30 -2 17 -5 30 -5 30 0 0 4 15 5 33 0 18 -4 43 -3 54 1
19 7 21 12 14 37 -5 16 -5 35 -1 42 4 6 4 27 0 46 -4 18 -6 35 -3 37 2 2 3 24
3 48 0 24 0 53 0 64 1 53 -1 90 -5 94 -3 2 -231 5 -507 7 -277 1 -537 5 -578
7 -41 3 -87 5 -102 6 -16 0 -28 6 -28 13 0 14 140 242 152 246 4 2 8 7 8 12 0
4 44 75 98 156 54 82 121 185 150 229 28 44 56 87 62 95 6 8 56 85 112 170 57
85 106 157 110 158 4 2 8 8 8 13 0 11 91 153 102 157 4 2 8 7 8 12 0 9 111
192 121 200 3 3 9 15 13 28 4 12 12 22 17 22 5 0 9 4 9 8 0 5 34 67 75 139 41
72 75 136 75 142 0 6 4 11 8 11 8 0 30 57 39 100 6 29 -20 60 -59 71 -63 17
-104 20 -274 23 -89 2 -167 7 -173 10 -6 4 -11 3 -11 -1 0 -10 -47 -10 -56 0
-3 3 -17 2 -30 -3 -15 -6 -24 -6 -24 0 0 6 -9 6 -25 0 -16 -6 -25 -6 -25 1 0
6 -6 6 -19 0 -10 -6 -21 -8 -23 -5 -10 10 -48 13 -53 4 -3 -5 -15 -6 -28 -1
-12 5 -32 5 -44 0 -13 -5 -23 -5 -23 0 0 5 -18 5 -40 1 -22 -4 -42 -4 -45 -1
-5 9 -59 6 -74 -4 -6 -3 -11 -3 -11 2 0 4 -27 8 -60 8 -33 0 -60 -4 -60 -8 0
-5 -5 -5 -11 -2 -14 9 -223 10 -237 1 -6 -3 -13 -2 -17 3 -4 7 -15 7 -30 1
-14 -5 -25 -6 -25 -2 0 8 -231 7 -254 -1 -9 -4 -16 -3 -16 1 0 8 -59 10 -61 2z"/>
</g>
</svg>
