<svg version="1.0" xmlns="http://www.w3.org/2000/svg" width="392" height="224" viewBox="0 0 294 168">
  <path d="M10.2 30.7C4.6 47.7 0 61.9 0 62.3c0 .4 2.1.7 4.8.7h4.7l2.4-8 2.4-8.1 12.5.3 12.6.3 2.5 7.7 2.5 7.8h4.8c2.6 0 4.8-.4 4.8-.8 0-.5-4.7-14.6-10.4-31.3L33.2.5 26.9.2l-6.4-.3-10.3 30.8zM31.9 24c2.2 6.9 4.1 12.8 4.1 13.3 0 .4-4 .7-9 .7s-9-.3-9-.7c0-2.3 8.5-27.2 9.1-26.6.3.5 2.5 6.4 4.8 13.3zM77 18.1c-1.3.6-3.2 1.7-4.2 2.6-1.8 1.6-3.8 1-3.8-1.3 0-.9-1.1-1.4-3.5-1.4H62v45h9V49.1c0-7.6.5-15.2 1.1-16.9 1.4-4 5.3-6.5 10.1-6.5H86v-4.3c0-4.3-.1-4.4-3.2-4.3-1.8 0-4.4.5-5.8 1zM109.5 19.4c-2.7 1.4-5.1 2.6-5.2 2.6-.2 0-.3-.9-.3-2 0-1.6-.7-2-3.5-2H97v45h9V48.9c0-11 .4-14.9 1.6-17.5 2.6-5.5 9.5-8 14.6-5.3 3.8 2 4.8 6.9 4.8 22.4V63h9.1l-.3-16.8c-.2-13.9-.6-17.3-2.2-20.5-2.6-5.3-6.6-7.8-13.4-8.4-4.8-.4-6.5 0-10.7 2.1zM158.9 19.8c-16.4 8.6-15.4 34.6 1.6 42.3 8.1 3.7 16.8 1.9 23.8-5.1 2.6-2.6 4.7-5.2 4.7-5.9 0-.7-1.9-1.1-4.8-1.1-3.5 0-5.2.5-6.4 1.9-.9 1.1-3.5 2.5-5.8 3.1-3.5.9-4.7.8-7.8-.7-3.6-1.8-8.2-7.3-8.2-9.9 0-1.1 3.4-1.4 17-1.4h17v-3.1c0-17.5-16.1-28-31.1-20.1zm17.7 8.6c1.9 1.9 3.4 4.3 3.4 5.5 0 2-.5 2.1-12 2.1-10.9 0-11.9-.1-11.3-1.8 2.2-5.9 6.5-9.1 12.7-9.2 3 0 4.5.7 7.2 3.4zM22.3 103.6c-6.3 2.3-13.1 8.9-16.4 15.9C3.4 124.6 3 126.7 3 134c0 6.8.5 9.5 2.4 13.6 3.4 7.2 7.8 11.9 14.8 15.4 5.2 2.6 7.2 3 13.8 3 6.5 0 8.6-.5 13.3-2.8l5.6-2.8 3 3 3.1 3 3-2.9 3-2.9-3-3.1-3.1-3.2 2.7-5.4c1.9-3.8 2.9-7.4 3.2-12.5.9-14-5.1-25.1-16.7-31.1-5.6-2.9-7.2-3.3-13.9-3.2-4.3 0-9.6.7-11.9 1.5zm23.8 10.9c8.6 5.7 11.7 20.3 6.5 30.9-3.7 7.6-8.8 10.9-17.5 11.4-8.6.4-14.2-2.3-18.8-9.1-9.3-14-1.9-34 13.6-36.7 5.1-.8 11.9.6 16.2 3.5zM168.6 120c-1.6.5-3.9 1.8-5.1 3l-2.3 2.1-.6-2.5c-.5-2.1-1.3-2.6-3.6-2.6h-3v45h8v-11.8c.1-14.5 1.1-19.7 4.2-22.9 3.5-3.5 9.5-4.1 13-1.3 3.8 3 4.8 7.5 4.8 22.7V165h9v-14.3c0-7.8-.5-16-1.1-18.2-2.9-10.7-12.3-15.8-23.3-12.5zM264 120.6c-8.4 3.7-13.2 11.3-13.2 21.3 0 8.5 2.3 14.2 7.5 18.6 7.1 6.1 15.2 7.1 23.5 2.9 4.6-2.3 10.2-8.1 10.2-10.6 0-1.9-8.2-.7-11.3 1.6-4.1 3-7.5 3.8-11.8 2.6-4.3-1.2-7.6-4.6-8.9-8.8l-.9-3.2h34.2l-.6-5.8c-.8-9.3-4.4-14.7-12.2-18.3-4.8-2.2-11.7-2.4-16.5-.3zm14.4 8.5c2.3 1.8 5.6 6.7 5.6 8.4 0 .3-5.4.5-12 .5-13.9 0-14.6-.6-8.1-7.1 3.2-3.2 4.6-3.9 7.8-3.9 2.6 0 5 .8 6.7 2.1zM77.2 136.2c.3 15.2.5 16.6 2.8 20.7 3.9 6.9 6.9 8.6 15 8.6 5.5 0 7.4-.4 9.9-2.2 3.7-2.8 4.1-2.8 4.1-.3 0 1.6.7 2 3.5 2h3.5v-45h-9v14c0 15.2-1 19.5-5.1 22.4-2.7 1.8-7.1 2.1-10 .6-4.1-2.3-5.3-6.7-5.7-22.3l-.4-14.7h-9l.4 16.2zM131 142.5V165h9v-45h-9v22.5zM205 123.5v3.5h22l-11 16.5c-6.7 10.1-11 17.4-11 19v2.5h35v-7h-11.5c-6.3 0-11.5-.2-11.5-.5s5-7.9 11-17c6.1-9.1 11-17.4 11-18.5 0-1.9-.6-2-17-2h-17v3.5z"/>
</svg>
